<svg width="158" height="48" viewBox="0 0 158 48" fill="none" xmlns="http://www.w3.org/2000/svg">
<path d="M23.2097 7.96077H28.6246V0.308777C28.6246 0.308777 22.933 0.308777 22.7958 0.308777C10.1783 0.543738 0 10.7294 0 23.2648C0 35.9357 10.4011 46.2086 23.2097 46.2195H28.6246V38.5688H23.2097C20.8592 38.5597 18.5416 38.0218 16.4325 36.9958C14.3233 35.9697 12.4778 34.4824 11.0359 32.6464C9.59393 30.8105 8.59326 28.6741 8.10968 26.399C7.62611 24.1239 7.67229 21.7699 8.24475 19.5151C9.11703 22.7827 11.058 25.6731 13.7649 27.7355C16.4719 29.7979 19.7927 30.9165 23.2097 30.9168H28.6246V23.2648H23.2097C18.9667 23.2648 15.5148 19.8094 15.5148 15.6128C15.5148 11.4162 18.9667 7.96077 23.2097 7.96077Z" fill="#0057FF"/>
<path d="M44.0977 8.91522V4.70044C44.0977 1.71619 45.9271 0 49.3031 0C50.7358 0 51.9236 0.391199 52.8481 1.15664C53.7726 1.92208 54.2465 3.05935 54.2465 4.60234V4.78886H51.3077V4.60234C51.3077 3.25918 50.3464 2.64392 49.1207 2.64392C47.7247 2.64392 47.0267 3.25959 47.0267 4.49092V9.12111C47.0267 10.3516 47.7247 10.9673 49.1207 10.9681C50.3832 10.9681 51.3077 10.4086 51.3077 9.00848V8.82196H54.2465V9.00848C54.2465 10.5575 53.7751 11.7142 52.8518 12.4784C51.9285 13.2426 50.7395 13.6157 49.3068 13.6157C45.9271 13.6157 44.0977 11.9007 44.0977 8.91522Z" fill="#101417"/>
<path d="M56.539 13.3359V0.279812H62.271C64.987 0.279812 66.4344 1.77194 66.4344 4.38316C66.4344 6.15507 65.7364 7.42313 64.3221 8.15103L66.8115 12.39V13.3408H63.9682L61.2154 8.49621H59.4619V13.3408L56.539 13.3359ZM59.4619 6.08119H61.7812C62.9126 6.08119 63.4784 5.6149 63.4784 4.42071C63.4784 3.2459 62.9126 2.79778 61.7812 2.79778H59.4619V6.08119Z" fill="#101417"/>
<path d="M72.6622 13.3359V8.1692L68.4192 1.23056V0.279812H71.3042L74.1524 5.46472L77.1513 0.279812H79.8453V1.23056L75.6047 8.05777V13.3359H72.6622Z" fill="#101417"/>
<path d="M81.5452 13.3359V0.279812H87.467C89.8242 0.279812 91.2385 1.8652 91.2385 4.38316C91.2385 6.90113 89.8242 8.46835 87.467 8.46835H84.4681V13.3359H81.5452ZM84.4681 5.94796H86.9172C87.6519 5.94796 88.2752 5.42596 88.2752 4.38074C88.2752 3.33553 87.6556 2.79778 86.9196 2.79778H84.4706L84.4681 5.94796Z" fill="#101417"/>
<path d="M95.9147 13.3359V2.79899H92.2754V0.279812H102.459V2.79778H98.8376V13.3347L95.9147 13.3359Z" fill="#101417"/>
<path d="M114.557 8.89705C114.557 10.371 114.086 11.5277 113.123 12.367C112.161 13.2063 110.879 13.6157 109.257 13.6157C107.636 13.6157 106.353 13.2063 105.392 12.367C104.43 11.5277 103.962 10.371 103.962 8.89705V4.73799C103.962 1.75373 105.995 0 109.257 0C112.519 0 114.557 1.75373 114.557 4.73799V8.89705ZM111.634 4.58781C111.634 3.52564 110.822 2.64998 109.257 2.64998C107.692 2.64998 106.882 3.52685 106.882 4.58781V9.02786C106.882 10.0912 107.692 10.9657 109.257 10.9657C110.822 10.9657 111.634 10.0888 111.634 9.02786V4.58781Z" fill="#101417"/>
<path d="M44.7896 30.9484V17.8923H50.7114C53.0686 17.8923 54.4829 19.4776 54.4829 21.9956C54.4829 24.5136 53.0686 26.0808 50.7114 26.0808H47.7125V30.9484H44.7896ZM47.7125 23.5604H50.1616C50.8963 23.5604 51.5196 23.0372 51.5196 21.9932C51.5196 20.9492 50.8975 20.4078 50.1616 20.4078H47.7125V23.5604Z" fill="#101417"/>
<path d="M56.539 30.9484V17.8923H62.271C64.987 17.8923 66.4344 19.3844 66.4344 21.9956C66.4344 23.7675 65.7364 25.0356 64.3221 25.7635L66.8115 30.0025V30.9532H63.9682L61.2154 26.1086H59.4619V30.9532L56.539 30.9484ZM59.4619 23.6924H61.7812C62.9126 23.6924 63.4784 23.2261 63.4784 22.0331C63.4784 20.8402 62.9126 20.4102 61.7812 20.4102H59.4619V23.6924Z" fill="#101417"/>
<path d="M79.2062 26.5095C79.2062 27.9822 78.7347 29.1389 77.7735 29.9782C76.8122 30.8175 75.5289 31.2281 73.9077 31.2281C72.2864 31.2281 71.0031 30.8175 70.0406 29.9782C69.0781 29.1389 68.6079 27.9822 68.6079 26.5095V22.3492C68.6079 19.365 70.6443 17.6124 73.9077 17.6124C77.171 17.6124 79.2062 19.365 79.2062 22.3492V26.5095ZM76.2881 22.2002C76.2881 21.1369 75.4775 20.2624 73.9126 20.2624C72.3476 20.2624 71.5357 21.1381 71.5357 22.2002V26.6451C71.5357 27.7073 72.3464 28.583 73.9126 28.583C75.4787 28.583 76.2881 27.7061 76.2881 26.6451V22.2002Z" fill="#101417"/>
<path d="M81.3562 26.524V22.3092C81.3562 19.325 83.1857 17.6088 86.5605 17.6088C87.9944 17.6088 89.1822 18 90.1116 18.7654C91.0411 19.5309 91.5064 20.6669 91.5064 22.216V22.4061H88.5675V22.2196C88.5675 20.8765 87.605 20.2612 86.3793 20.2612C84.9849 20.2612 84.2874 20.8765 84.2866 22.107V26.7335C84.2866 27.9641 84.9841 28.5793 86.3793 28.5793C87.643 28.5793 88.5675 28.0198 88.5675 26.6209V26.4344H91.5064V26.6209C91.5064 28.1687 91.0349 29.3254 90.1116 30.0908C89.1884 30.8563 87.9993 31.2281 86.5605 31.2281C83.1857 31.2281 81.3562 29.5119 81.3562 26.524Z" fill="#101417"/>
<path d="M93.8222 30.9484V17.8923H102.516V20.4102H96.7451V23.208H101.643V25.6145H96.7451V28.4304H102.553V30.9484H93.8222Z" fill="#101417"/>
<path d="M105.542 30.0533C104.543 29.2697 104.052 28.1506 104.052 26.7142H106.976C106.963 27.1409 107.118 27.5558 107.41 27.8708C108.013 28.4498 108.73 28.5794 109.578 28.5794C110.842 28.5794 111.502 28.0949 111.502 27.3295C111.505 27.1566 111.456 26.9867 111.362 26.8409C111.268 26.6952 111.133 26.5799 110.973 26.5095C110.615 26.3036 109.955 26.0432 108.974 25.7259L107.919 25.371C106.939 25.0549 106.316 24.7752 105.542 24.1962C104.788 23.6185 104.373 22.7429 104.373 21.6225C104.373 20.4114 104.807 19.4425 105.693 18.7158C106.578 17.9891 107.787 17.6161 109.314 17.6161C110.804 17.6161 112.008 17.9891 112.935 18.7534C113.862 19.5176 114.311 20.6185 114.311 22.0743H111.372C111.372 20.8801 110.448 20.2649 109.241 20.2649C108.035 20.2649 107.336 20.7118 107.336 21.476C107.336 21.8866 107.525 22.0913 107.807 22.3153C107.958 22.4449 108.335 22.5757 108.542 22.6508L109.503 22.9863L110.483 23.3218C113.029 24.1987 114.463 25.1688 114.463 27.1829C114.463 29.627 112.652 31.2305 109.32 31.2305C107.805 31.2281 106.541 30.8369 105.542 30.0533Z" fill="#101417"/>
<path d="M117.452 30.0533C116.453 29.2697 115.963 28.1506 115.963 26.7142H118.886C118.873 27.1409 119.028 27.5558 119.319 27.8708C119.923 28.4498 120.639 28.5794 121.488 28.5794C122.752 28.5794 123.412 28.0949 123.412 27.3295C123.415 27.1567 123.366 26.9868 123.272 26.8411C123.179 26.6953 123.043 26.58 122.884 26.5095C122.525 26.3036 121.865 26.0432 120.885 25.7259L119.829 25.371C118.849 25.0549 118.226 24.7752 117.453 24.1962C116.699 23.6185 116.284 22.7429 116.284 21.6225C116.284 20.4114 116.717 19.4425 117.604 18.7158C118.49 17.9891 119.696 17.6161 121.225 17.6161C122.714 17.6161 123.919 17.9891 124.846 18.7534C125.773 19.5176 126.222 20.6185 126.222 22.0743H123.283C123.283 20.8801 122.36 20.2649 121.152 20.2649C119.945 20.2649 119.248 20.7118 119.248 21.476C119.248 21.8866 119.437 22.0913 119.72 22.3153C119.87 22.4449 120.248 22.5757 120.454 22.6508L121.417 22.9863L122.397 23.3218C124.942 24.1987 126.375 25.1688 126.375 27.1829C126.375 29.627 124.565 31.2305 121.232 31.2305C119.715 31.2281 118.451 30.8369 117.452 30.0533Z" fill="#101417"/>
<path d="M128.729 30.9484V17.8923H131.652V30.9484H128.729Z" fill="#101417"/>
<path d="M134.556 30.9484V17.8923H137.234L141.93 25.5551V17.8923H144.853V30.9484H142.175L137.479 23.283V30.9484H134.556Z" fill="#101417"/>
<path d="M148.681 29.96C147.814 29.1013 147.379 27.9641 147.379 26.5277V22.3129C147.379 19.3468 149.323 17.6124 152.66 17.6124C154.15 17.6124 155.353 18.0036 156.3 18.8054C157.247 19.6072 157.719 20.7275 157.719 22.1639H154.78C154.78 20.9891 153.875 20.2624 152.499 20.2624C151.047 20.2624 150.311 20.9891 150.311 22.1833V26.524C150.311 27.7182 151.103 28.5757 152.461 28.5757C152.933 28.5852 153.4 28.4796 153.821 28.2684C154.242 28.0572 154.604 27.7468 154.875 27.3646V26.2079H152.612V23.805H157.719V30.9507H156.154L155.551 29.7941C154.891 30.671 153.627 31.2305 152.269 31.2305C150.755 31.2281 149.568 30.7994 148.681 29.96Z" fill="#101417"/>
<path d="M44.0977 46.2536V38.5604H45.5316V40.9367C45.9578 40.5757 46.505 40.3852 47.0659 40.4026C48.2574 40.4026 49.1182 41.1293 49.1182 42.4978V44.2867C49.1182 45.6517 48.261 46.382 47.0659 46.382C46.7465 46.3841 46.4299 46.3235 46.1344 46.2037C45.8389 46.084 45.5703 45.9075 45.3442 45.6844L44.9254 46.2512L44.0977 46.2536ZM45.5316 44.4974C45.9406 44.9007 46.3483 45.103 46.7683 45.103C46.8903 45.1057 47.0114 45.0838 47.1245 45.0385C47.2375 44.9932 47.34 44.9256 47.4256 44.8397C47.5113 44.7539 47.5783 44.6516 47.6226 44.5392C47.6668 44.4269 47.6874 44.3067 47.6831 44.1862V42.6117C47.6874 42.4911 47.6668 42.371 47.6226 42.2586C47.5783 42.1462 47.5113 42.044 47.4256 41.9581C47.34 41.8723 47.2375 41.8046 47.1245 41.7594C47.0114 41.7141 46.8903 41.6921 46.7683 41.6949C46.3483 41.6949 45.9406 41.8911 45.5316 42.2944V44.4974Z" fill="#101417" fill-opacity="0.68"/>
<path d="M51.2242 48V47.4865L51.7655 46.2536L49.7793 41.2007V40.5358H51.103L52.472 44.3279L53.7627 40.5418H55.0644V41.2067L52.3949 48.0061L51.2242 48Z" fill="#101417" fill-opacity="0.68"/>
<path d="M58.1318 43.6678V41.2007C58.1318 39.4554 59.2131 38.4514 61.1662 38.4514C61.9928 38.4514 62.6773 38.6803 63.2173 39.1272C63.7573 39.5741 64.034 40.2403 64.034 41.1244V41.2334H62.4679V41.1244C62.4679 40.2839 61.8556 39.8697 61.0658 39.8697C60.1511 39.8697 59.698 40.3166 59.698 41.0917V43.7768C59.698 44.5519 60.1511 44.9988 61.0658 44.9988C61.8605 44.9988 62.4679 44.6064 62.4679 43.7441V43.6351H64.034V43.7441C64.034 44.6282 63.7585 45.3041 63.2173 45.7522C62.6761 46.2003 61.9928 46.4171 61.1662 46.4171C59.2131 46.4171 58.1318 45.4179 58.1318 43.6678Z" fill="#101417" fill-opacity="0.68"/>
<path d="M65.0493 44.2673V42.522C65.0493 41.2661 65.9432 40.405 67.5645 40.405C69.165 40.405 70.0699 41.2661 70.0699 42.522V44.2673C70.0699 45.522 69.165 46.3844 67.5645 46.3844C65.9432 46.3868 65.0493 45.522 65.0493 44.2673ZM68.6347 44.2067V42.5874C68.6347 42.063 68.26 41.6924 67.5645 41.6924C66.869 41.6924 66.4832 42.0739 66.4832 42.5874V44.2067C66.4832 44.7203 66.8592 45.1018 67.5645 45.1018C68.2698 45.1018 68.6347 44.7263 68.6347 44.2067Z" fill="#101417" fill-opacity="0.68"/>
<path d="M71.3042 46.2536V40.5358H72.7369V46.2536H71.3042Z" fill="#101417" fill-opacity="0.68"/>
<path d="M74.2285 46.2536V40.5358H75.0563L75.4751 41.1026C75.6988 40.8784 75.9659 40.7011 76.2605 40.5812C76.555 40.4613 76.8709 40.4014 77.1894 40.405C78.436 40.405 79.1977 41.2334 79.1977 42.6202V46.2536H77.7576V42.7074C77.7576 42.0413 77.3903 41.6924 76.8649 41.6924C76.4229 41.6924 76.0261 41.8886 75.6612 42.292V46.2536H74.2285Z" fill="#101417" fill-opacity="0.68"/>
<path d="M81.0463 45.8176C80.8156 45.6338 80.6297 45.4009 80.5025 45.1363C80.3753 44.8717 80.31 44.5821 80.3115 44.2891H81.7344C81.7895 44.8026 82.2965 45.097 83.0814 45.097C83.6006 45.097 83.9312 44.9116 83.9312 44.6125C83.9312 44.4042 83.799 44.2734 83.5455 44.2189L81.9451 43.8156C80.941 43.5649 80.434 43.0295 80.434 42.2326C80.434 41.0978 81.3169 40.4001 82.7839 40.4001C84.2729 40.4001 85.1778 41.1087 85.2219 42.3634H83.7831C83.75 41.9165 83.3741 41.6876 82.6687 41.6876C82.0834 41.6876 81.8189 41.8838 81.8189 42.1454C81.8189 42.3307 81.9842 42.4736 82.3149 42.5499L83.9594 42.9532C84.8643 43.1712 85.3162 43.6799 85.3162 44.5023C85.3162 45.671 84.3672 46.3795 82.9002 46.3795C82.1385 46.3868 81.5214 46.1991 81.0463 45.8176Z" fill="#101417" fill-opacity="0.68"/>
<path d="M86.6733 46.2537V38.615H90.1253C91.5041 38.615 92.3429 39.5427 92.3429 41.0264C92.3429 42.51 91.5041 43.4269 90.1253 43.4269H88.2407V46.2537H86.6733ZM88.2407 42.074H89.84C90.3592 42.074 90.7559 41.7107 90.7559 41.0155C90.7559 40.3203 90.3592 39.9678 89.84 39.9678H88.2407V42.074Z" fill="#101417" fill-opacity="0.68"/>
<path d="M93.3923 45.9375C93.025 45.6432 92.8413 45.2108 92.8413 44.6827C92.8413 43.4934 93.636 42.8273 95.1802 42.8273H96.3704V42.4639C96.3704 41.9504 96.0618 41.6888 95.4434 41.6888C94.825 41.6888 94.5165 41.9504 94.5165 42.3428H93.1168C93.1168 41.1644 93.9115 40.405 95.4434 40.405C96.9753 40.405 97.8055 41.1789 97.8055 42.3682V46.2536H96.9827L96.5626 45.6977C96.0828 46.1507 95.4417 46.3983 94.7785 46.3868C94.2779 46.3994 93.7883 46.2407 93.3923 45.9375ZM96.3704 44.541V43.9076H95.1789C94.5067 43.9076 94.274 44.191 94.274 44.4974C94.274 44.9007 94.5397 45.103 95.0797 45.103C95.3233 45.108 95.565 45.0603 95.7879 44.9632C96.0109 44.8661 96.2097 44.7221 96.3704 44.541Z" fill="#101417" fill-opacity="0.68"/>
<path d="M99.2407 46.2536V40.5358H100.675V46.2536H99.2407Z" fill="#101417" fill-opacity="0.68"/>
<path d="M107.023 38.5604V46.2536H106.191L105.772 45.6868C105.546 45.9103 105.278 46.0873 104.982 46.2075C104.687 46.3277 104.37 46.3886 104.05 46.3868C102.86 46.3868 102.003 45.6602 102.003 44.2891V42.5003C102.003 41.1353 102.86 40.405 104.055 40.405C104.614 40.3882 105.159 40.5777 105.585 40.9367V38.5604H107.023ZM105.59 42.292C105.181 41.8887 104.773 41.6924 104.353 41.6924C104.231 41.6897 104.11 41.7117 103.997 41.7569C103.884 41.8022 103.781 41.8699 103.695 41.9557C103.61 42.0416 103.543 42.1438 103.499 42.2562C103.454 42.3686 103.434 42.4887 103.438 42.6093V44.1838C103.434 44.3043 103.454 44.4245 103.499 44.5368C103.543 44.6492 103.61 44.7515 103.695 44.8373C103.781 44.9232 103.884 44.9908 103.997 45.0361C104.11 45.0814 104.231 45.1033 104.353 45.1006C104.773 45.1006 105.181 44.9044 105.59 44.495V42.292Z" fill="#101417" fill-opacity="0.68"/>
</svg>
